# xmcd
#
# Track frame offsets:
#	150
#	18615
#	38528
#	61131
#	83332
#	105707
#	120165
#	142625
#	165552
#	194821
#	216110
#	236875
#	252691
#
# Disc length: 3612 seconds
#
# Revision: 0
# Processed by: cddbd v1.5.2PL0 Copyright (c) Steve Scherf et al.
# Submitted via: audiograbber 1.83.01
#
DISCID=a80e1a0d
DTITLE=Sonic Seducer - Cold Hands Seduction Vol. 135 - 10-2012
DYEAR=2012
DGENRE=Gothic
TTITLE0=Joachim Witt - Gloria (Mono Inc.-Remix) [Exklusiv]
TTITLE1=The 69 Eyes - Love Runs Away
TTITLE2=Velvet Acid Christ - Inhale Blood
TTITLE3=Nexus Kenosis - Future Divided
TTITLE4=Red Industrie feat Sara Noxx - The Final Destruction
TTITLE5=Batch ID - Ni Skrämmer Inte Mig
TTITLE6=KLUTÆ - No Man's Land
TTITLE7=Dirty K - Cataclysm
TTITLE8=Greyhound - Kontaktsperre
TTITLE9=Andreas Gross - Lilith
TTITLE10=Gates Of Dawn - Hypothermia
TTITLE11=Voodoma - Rebirth
TTITLE12=The P.O.X. - You Don't Mean Anything To Me
EXTD=
EXTT0=
EXTT1=
EXTT2=
EXTT3=
EXTT4=
EXTT5=
EXTT6=
EXTT7=
EXTT8=
EXTT9=
EXTT10=
EXTT11=
EXTT12=
PLAYORDER=
